<?xml version="1.0" standalone="no"?>
<!DOCTYPE svg PUBLIC "-//W3C//DTD SVG 20010904//EN"
 "http://www.w3.org/TR/2001/REC-SVG-20010904/DTD/svg10.dtd">
<svg version="1.0" xmlns="http://www.w3.org/2000/svg"
 width="512.000000pt" height="512.000000pt" viewBox="0 0 512.000000 512.000000"
 preserveAspectRatio="xMidYMid meet">

<g transform="translate(0.000000,512.000000) scale(0.100000,-0.100000)"
fill="#000000" stroke="none">
<path d="M2904 5047 c17 -53 28 -159 24 -223 -12 -178 -120 -308 -554 -661
-88 -72 -181 -154 -207 -183 -79 -88 -97 -197 -53 -323 47 -133 222 -359 367
-472 l63 -50 -40 75 c-23 41 -67 111 -99 155 -88 122 -126 208 -132 302 -3 45
0 96 6 120 19 69 84 154 223 289 362 352 393 385 432 466 68 142 80 273 35
393 -18 48 -76 149 -65 112z"/>
<path d="M3177 4285 c-311 -122 -496 -256 -571 -415 -29 -61 -31 -72 -31 -185
0 -151 13 -181 123 -298 89 -94 98 -117 83 -209 -11 -62 -31 -110 -65 -147
-43 -49 85 31 146 91 77 75 103 132 101 223 -1 91 -25 145 -103 230 -74 82
-91 120 -91 202 -2 164 126 302 481 521 49 30 29 27 -73 -13z"/>
<path d="M3503 3141 c-27 -7 -83 -36 -83 -44 0 -1 33 -2 73 -2 94 -1 151 -26
192 -85 25 -36 30 -55 33 -117 4 -63 1 -81 -22 -127 -41 -84 -168 -196 -311
-273 -72 -39 -63 -41 31 -9 103 35 175 70 253 120 147 94 206 186 199 304 -4
75 -30 124 -89 168 -69 51 -205 83 -276 65z"/>
<path d="M1987 3099 c-210 -20 -426 -105 -443 -174 -8 -33 -1 -41 60 -64 126
-47 437 -77 686 -67 336 14 607 46 775 90 94 25 212 72 203 81 -3 3 -38 -2
-79 -10 -171 -36 -286 -46 -649 -57 -391 -12 -620 -4 -705 24 -35 11 -40 17
-40 43 0 27 7 33 65 62 40 20 111 41 185 57 128 26 109 31 -58 15z"/>
<path d="M1910 2668 c-79 -41 -108 -76 -92 -112 28 -62 162 -109 357 -127 167
-16 489 -6 640 19 188 31 345 64 340 71 -2 4 -30 27 -62 52 l-58 46 -50 -13
c-171 -45 -570 -67 -819 -45 -194 17 -249 50 -200 119 8 12 13 22 11 22 -2 0
-33 -15 -67 -32z"/>
<path d="M2013 2290 c-88 -40 -118 -103 -70 -147 120 -110 489 -151 833 -92
100 17 309 71 321 83 2 2 -19 16 -49 31 -29 15 -67 37 -83 49 l-30 23 -115
-18 c-172 -28 -385 -40 -530 -29 -187 14 -247 37 -236 91 3 16 4 29 3 29 -1 0
-21 -9 -44 -20z"/>
<path d="M1560 2040 c-101 -22 -160 -42 -216 -75 -83 -49 -118 -120 -76 -158
124 -113 1046 -164 1727 -97 411 41 650 111 701 206 15 28 15 32 -2 65 l-18
34 -7 -35 c-15 -71 -74 -97 -299 -129 -346 -51 -775 -76 -1140 -68 -462 11
-740 58 -740 127 0 26 79 71 185 106 44 15 84 30 90 35 16 16 -116 8 -205 -11z"/>
<path d="M3805 1793 c-71 -37 -247 -102 -335 -124 -86 -22 -316 -62 -470 -81
-208 -26 -944 -16 -1235 17 l-40 5 35 -16 c57 -26 176 -53 310 -71 250 -32
941 -15 1268 32 204 30 391 97 460 166 32 31 67 87 60 94 -2 2 -25 -8 -53 -22z"/>
<path d="M1505 873 c0 -464 0 -468 -23 -528 -13 -33 -25 -67 -28 -76 -4 -11
11 -23 60 -43 76 -32 79 -31 118 41 53 96 56 132 60 621 l4 452 -96 0 -96 0 1
-467z"/>
<path d="M2035 1056 c-51 -13 -153 -53 -169 -67 -9 -8 11 -106 24 -114 4 -2
42 13 84 35 114 59 201 50 240 -23 25 -46 19 -131 -9 -135 -60 -8 -167 -38
-215 -59 -100 -44 -150 -110 -150 -198 0 -59 19 -104 59 -138 72 -60 165 -55
273 15 58 38 63 39 73 22 5 -10 22 -31 37 -46 22 -24 35 -28 78 -28 l52 0 -4
293 c-3 273 -5 295 -25 339 -45 99 -191 143 -348 104z m195 -473 c0 -88 0 -88
-33 -110 -100 -67 -187 -43 -187 52 0 70 37 103 147 129 32 8 61 15 66 15 4 1
7 -38 7 -86z"/>
<path d="M2572 1057 c-70 -8 -82 -12 -77 -26 3 -9 65 -170 138 -358 l132 -343
50 1 c96 2 87 -11 190 254 51 132 114 289 139 349 27 63 43 113 38 118 -5 5
-39 8 -77 6 l-67 -3 -63 -180 c-34 -99 -72 -219 -85 -267 -13 -49 -27 -88 -31
-88 -5 0 -11 12 -15 27 -12 58 -37 141 -69 235 -18 53 -46 139 -61 192 -20 72
-31 96 -43 95 -9 -1 -53 -6 -99 -12z"/>
<path d="M3476 1055 c-93 -24 -177 -65 -172 -84 3 -9 10 -35 17 -58 7 -24 16
-43 21 -43 5 0 25 11 46 25 150 99 292 56 292 -89 0 -42 -2 -46 -27 -52 -247
-53 -336 -104 -361 -207 -34 -133 71 -255 200 -231 41 8 126 49 154 75 28 26
40 24 54 -11 23 -55 78 -75 125 -44 l25 16 0 274 c0 226 -3 281 -16 312 -20
48 -60 90 -104 109 -50 22 -183 26 -254 8z m204 -470 l0 -85 -41 -30 c-79 -57
-156 -46 -179 25 -25 76 24 131 145 160 79 20 75 24 75 -70z"/>
</g>
</svg>
